<?xml version="1.0" standalone="no"?><!DOCTYPE svg PUBLIC "-//W3C//DTD SVG 1.1//EN" "http://www.w3.org/Graphics/SVG/1.1/DTD/svg11.dtd"><svg t="1586226557232" class="icon" viewBox="0 0 1024 1024" version="1.1" xmlns="http://www.w3.org/2000/svg" p-id="1148" width="200" height="200" xmlns:xlink="http://www.w3.org/1999/xlink"><defs><style type="text/css"></style></defs><path d="M837.664364 654.468722c28.565944 0 41.525919-11.589977 41.525919-40.083922 0-16.495968-17.455966-38.611925-29.429943-48.069906l-2.272995-2.273996c-39.812922-30.79394-81.367841-60.133883-129.139748-78.369847 60.760881-52.151898 99.435806-123.657758 99.435806-210.009589C817.783403 118.677768 690.459651 0 533.477958 0s-284.259445 118.678768-284.259445 275.660462c0 86.352831 38.679924 157.859692 99.412806 210.010589C154.714698 560.073906 16.727967 747.57854 16.603968 967.83311v0.095c0.124 28.446944 12.602975 49.659903 40.997919 49.659903 28.639944 0 45.206912-20.69696 47.987907-48.979905 21.809957-221.985566 136.042734-392.387234 427.911164-429.73616C626.271777 526.998971 733.709567 576.384874 800.516436 632.045766c18.141965 15.11697 25.005951 19.615962 33.111936 21.941957l4.035992 0.481999zM533.500958 464.942092c-118.858768 0-194.41062-89.504825-194.41062-189.27963 0-60.117883 66.929869-187.742633 194.701619-187.742634 130.881744 0 197.576614 123.314759 197.576615 188.949631 0 99.799805-83.938836 188.072633-197.867614 188.072633z m94.771815 321.931371c0 28.539944 23.147955 42.181918 51.685899 42.181918h275.745461c28.541944 0 51.691899-13.640973 51.691899-42.181918 0-28.592944-23.147955-48.076906-51.691899-48.076906H679.958672c-28.537944 0-51.685899 19.482962-51.685899 48.076906z m327.42936 150.886705H679.959672c-28.536944 0-51.685899 10.10698-51.685899 38.650925 0 28.587944 23.147955 47.587907 51.685899 47.587907h275.745461c28.541944 0 51.691899-19.023963 51.691899-47.587907-0.002-28.543944-23.149955-38.650925-51.693899-38.650925z m0 0" p-id="1149" fill="#515151"></path></svg>