<?xml version="1.0" standalone="no"?><!DOCTYPE svg PUBLIC "-//W3C//DTD SVG 1.1//EN" "http://www.w3.org/Graphics/SVG/1.1/DTD/svg11.dtd"><svg t="1583151940410" class="icon" viewBox="0 0 1024 1024" version="1.1" xmlns="http://www.w3.org/2000/svg" p-id="1125" xmlns:xlink="http://www.w3.org/1999/xlink" width="200" height="200"><defs><style type="text/css"></style></defs><path d="M413 269.5c-22 0-40 18-40 40v486.1c0 22 18 40 40 40s40-18 40-40V309.5c0-22-18-40-40-40zM611.5 269.5c-22 0-40 18-40 40v486.1c0 22 18 40 40 40s40-18 40-40V309.5c0-22-18-40-40-40z" p-id="1126" fill="#268af0"></path><path d="M895.1 151.2H575.3c0.2-2.2 0.4-4.4 0.4-6.7v-17.9c0-34.9-28.6-63.5-63.5-63.5s-63.5 28.6-63.5 63.5v17.9c0 2.2 0.1 4.5 0.4 6.7H129.3c-22 0-40 18-40 40s18 40 40 40h43.8v629.9c0 53.2 43.3 96.5 96.5 96.5h482c53.2 0 96.5-43.3 96.5-96.5V309.5c0-22-18-40-40-40s-40 18-40 40v551.6c0 8.9-7.6 16.5-16.5 16.5h-482c-8.9 0-16.5-7.6-16.5-16.5V231.2h642.1c22 0 40-18 40-40-0.1-22-18.1-40-40.1-40z" p-id="1127" fill="#268af0"></path></svg>