<?xml version="1.0" standalone="no"?><!DOCTYPE svg PUBLIC "-//W3C//DTD SVG 1.1//EN" "http://www.w3.org/Graphics/SVG/1.1/DTD/svg11.dtd"><svg class="icon" width="32px" height="32.00px" viewBox="0 0 1024 1024" version="1.1" xmlns="http://www.w3.org/2000/svg"><path d="M201.109856 403.432329 818.699706 403.432329c14.984273 0 27.173896-12.190647 27.173896-27.175943 0-14.983249-12.189623-27.173896-27.172873-27.173896L201.109856 349.08249c-14.984273 0-27.173896 12.190647-27.173896 27.173896C173.936983 391.242705 186.126606 403.432329 201.109856 403.432329z" fill="#bfcbd9" /><path d="M201.109856 266.927375 818.699706 266.927375c14.984273 0 27.173896-12.189623 27.173896-27.173896s-12.189623-27.174919-27.172873-27.174919L201.109856 212.57856c-14.984273 0-27.173896 12.190647-27.173896 27.174919S186.126606 266.927375 201.109856 266.927375z" fill="#bfcbd9" /><path d="M928.819732 91.39864c-17.630542-17.630542-41.073464-27.339672-66.007343-27.339672L156.999219 64.058968c-51.470255 0-93.343945 41.87369-93.343945 93.344968l0 799.164279 5.119601-0.00307c0.165776 0 16.881482-0.021489 44.300972-1.040702l4.926196-0.184195L118.002043 157.403936c0-21.502733 17.494443-38.995129 38.997176-38.995129l705.813171 0c21.50478 0 38.997176 17.493419 38.997176 38.995129l0 352.314091c-6.081509-7.67582-12.632715-15.030321-19.576871-21.975501-47.622624-47.62467-110.942765-73.852008-178.294732-73.852008-66.287729 0-128.746246 25.445532-176.11509 71.692832L201.109856 485.58335c-14.984273 0-27.173896 12.189623-27.173896 27.171849 0.001023 14.984273 12.19167 27.172873 27.173896 27.172873l284.403398 0c-14.732539 25.452695-24.771173 53.032844-29.891797 82.165348L201.109856 622.093421c-14.984273 0-27.173896 12.189623-27.173896 27.173896 0 14.986319 12.189623 27.175943 27.173896 27.175943l250.886027 0c2.439562 59.758012 25.759687 116.131951 66.165955 160.102395-5.736655 1.811252-11.420097 3.694135-16.97051 5.629207-56.428174 19.663852-120.290667 30.905894-169.622212 38.504966l-4.337795 0.667196 0 55.011918 5.875824-0.881067c58.184167-8.730848 125.276215-19.8767 185.170327-41.714054 15.807011-5.76633 32.608675-10.851139 49.972135-15.125489 40.469714 25.88453 87.336114 39.552831 135.687332 39.552831 67.356061 0 130.676202-26.227338 178.295755-73.849962 45.016263-45.01831 71.050196-104.470353 73.635067-167.898965l0.289596 0L956.157357 157.403936C956.158381 132.470057 946.450275 109.029182 928.819732 91.39864zM506.498194 676.439166l0.109494 0-0.135076-5.247514c-0.344854-13.44522 0.534166-26.501584 2.612501-38.809911 5.827729-34.041304 20.488637-65.956178 42.448788-92.457762l0.195451 0 1.531889-1.807159c3.0208-3.558036 6.299473-7.347339 9.809413-10.949376 0.330528-0.335644 0.661056-0.667196 0.9967-1.001817 1.261737-1.26276 2.561335-2.526543 3.858888-3.756557 0.002047-0.002047 0.00307-0.00307 0.005117-0.005117 10.793834-10.17985 23.191188-19.358907 36.853349-27.281343l8.296967-4.813632c27.930119-14.411221 59.133795-21.986757 90.858334-21.986757 52.896744 0 102.568027 20.542872 139.865491 57.843406 37.296441 37.301558 57.83829 86.97591 57.839313 139.872654 0.002047 52.898791-20.538779 102.571097-57.83829 139.866515-37.301558 37.297464-86.97591 57.83829-139.874701 57.83829-17.903765 0-35.649941-2.396583-52.830229-7.128351l-4.832052-1.464351c-23.216771-7.03523-44.789089-18.280342-64.11218-33.423227l-1.895163-1.484817-0.180102 0.038886c-5.564739-4.477988-10.94426-9.30697-16.013719-14.376429C529.366018 771.20346 509.040087 725.404368 506.498194 676.439166z" fill="#bfcbd9" /><path d="M839.77879 560.436152 655.272589 744.943376 561.482483 651.420353 521.751596 691.25971 655.272589 824.405149 879.509676 600.167039Z" fill="#bfcbd9" /></svg>