<?xml version="1.0" standalone="no"?><!DOCTYPE svg PUBLIC "-//W3C//DTD SVG 1.1//EN" "http://www.w3.org/Graphics/SVG/1.1/DTD/svg11.dtd"><svg t="1582337340543" class="icon" viewBox="0 0 1024 1024" version="1.1" xmlns="http://www.w3.org/2000/svg" p-id="1205" xmlns:xlink="http://www.w3.org/1999/xlink" width="200" height="200"><defs><style type="text/css"></style></defs><path d="M862.315789 754.526316 862.315789 808.421053 1024 808.421053 1024 0 215.578947 0 215.578947 161.684211 269.473684 161.684211 269.473684 53.894737 970.105263 53.894737 970.105263 754.526316Z" p-id="1206"></path><path d="M0 224.525474l0 790.528C0 1020.011789 4.958316 1024 11.102316 1024l786.162526 0C803.462737 1024 808.421053 1020.011789 808.421053 1015.053474L808.421053 224.525474C808.421053 219.567158 803.462737 215.578947 797.318737 215.578947L11.102316 215.578947C4.958316 215.578947 0 219.567158 0 224.525474zM53.894737 269.473684l700.631579 0 0 700.631579L53.894737 970.105263 53.894737 269.473684z" p-id="1207"></path></svg>