<?xml version="1.0" standalone="no"?><!DOCTYPE svg PUBLIC "-//W3C//DTD SVG 1.1//EN" "http://www.w3.org/Graphics/SVG/1.1/DTD/svg11.dtd"><svg t="1583459527012" class="icon" viewBox="0 0 1024 1024" version="1.1" xmlns="http://www.w3.org/2000/svg" p-id="1438" xmlns:xlink="http://www.w3.org/1999/xlink" width="200" height="200"><defs><style type="text/css"></style></defs><path d="M853.0029668 686.48670671c-42.65563672 0-77.14371191 34.48713672-77.14371192 76.2352666 0 42.6565752 34.4880752 76.23620508 77.14371192 76.23620508s77.14371191-34.48713672 77.14371191-76.23620508c0-41.74812988-34.4880752-76.2352666-77.14371191-76.2352666zM493.60585937 164.63461394c-42.6565752 0-77.14371191 34.48713672-77.14371191 76.2352666 0 42.6565752 34.48713672 76.23620508 77.14371191 76.23620508 42.65563672 0 77.14371191-34.48713672 77.14371192-76.23620508 0-42.65563672-34.4880752-76.2352666-77.14371192-76.2352666zM172.32591602 686.48670671c-42.65563672 0-77.14371191 34.48713672-77.14371192 76.2352666 0 42.6565752 34.48713672 76.23620508 77.14371192 76.23620508 42.65563672 0 77.14371191-34.48713672 77.14371191-76.23620508 0-41.74812988-34.4880752-76.2352666-77.14371191-76.2352666z m565.4161748 209.64815625c-63.5301709 48.10067773-139.7654375 73.51274609-219.6326084 73.5127461-91.66382129 0-178.79104688-33.57962988-246.85875195-95.29478711-7.26099316-6.35254785-18.1510752-5.44504102-24.50456152 0.90750683-2.72252051 3.63096582-4.53753418 7.26099316-4.53753418 11.79852735s1.81595215 9.07600684 5.44597949 11.79758886c73.51274609 67.16019824 169.71504004 104.37079395 269.54736133 104.37079395 44.47065039 0 87.12628711-7.26099316 128.87441699-20.87453418 39.93311621-13.61354102 77.14371191-33.57962988 111.63178711-58.99169824 3.63002734-2.72345898 6.35254785-6.35348633 6.35254785-10.89195899 0.90844531-4.53753418-0.90750684-9.07600684-3.62908887-12.7050957-4.53753418-7.26005469-15.42949316-9.07412988-22.68954785-3.62908887zM330.24336719 289.87806511c3.63002734-2.72252051 6.35254785-6.35254785 8.1685-10.89008203 0.90750684-4.53753418 0-9.07600684-1.81595215-12.70603418-4.53753418-8.1685-15.42855469-10.89008203-23.59611621-5.44504102-58.08419141 34.48713672-107.09331445 84.40282812-140.67294434 143.39546485-34.4880752 60.80765039-53.54665723 129.7828623-53.54665722 199.66558105 0 9.07600684 7.26099316 17.24356836 17.24356835 17.24356836s17.24356836-7.26005469 17.24356836-17.24356836c-0.90750684-129.7828623 65.34518457-246.85969043 176.97603321-314.01988867z m520.94458593 93.48071191c-42.6565752-63.5301709-101.64827344-114.35336914-170.62348535-145.21141699-8.1685-3.63002734-19.05858203 0-22.68954785 8.1685-1.81501367 4.53753418-1.81501367 9.07600684 0 12.70509571 1.81501367 4.53753418 4.53753418 7.26099316 9.07600684 9.07600683 131.59787598 58.99169824 216.91008789 189.68206738 216.91008789 334.8925459 0 9.07600684 7.26005469 17.24356836 17.24450683 17.24356836 9.9825752 0 17.24262988-7.26099316 17.24262989-17.24356836-0.90750684-78.05028027-23.59705469-154.28648535-67.16019825-219.63073145z" p-id="1439" fill="#ffffff"></path></svg>