<?xml version="1.0" standalone="no"?><!DOCTYPE svg PUBLIC "-//W3C//DTD SVG 1.1//EN" "http://www.w3.org/Graphics/SVG/1.1/DTD/svg11.dtd"><svg t="1583318469166" class="icon" viewBox="0 0 1024 1024" version="1.1" xmlns="http://www.w3.org/2000/svg" p-id="842" xmlns:xlink="http://www.w3.org/1999/xlink" width="200" height="200"><defs><style type="text/css"></style></defs><path d="M525.653333 826.026667c-180.906667 0-331.093333-146.773333-331.093333-331.093334s146.773333-331.093333 331.093333-331.093333c116.053333 0 221.866667 58.026667 279.893334 157.013333 13.653333 23.893333 6.826667 54.613333-17.066667 71.68-23.893333 13.653333-54.613333 6.826667-71.68-17.066666-40.96-68.266667-116.053333-109.226667-194.56-109.226667a228.693333 228.693333 0 0 0 0 457.386667c68.266667 0 133.12-30.72 177.493333-81.92 17.066667-20.48 51.2-23.893333 71.68-6.826667 20.48 17.066667 23.893333 51.2 6.826667 71.68-61.44 75.093333-153.6 119.466667-252.586667 119.466667z" fill="#268af0" p-id="843"></path><path d="M546.133333 324.266667h238.933334c27.306667 0 51.2 23.893333 51.2 51.2s-23.893333 51.2-51.2 51.2h-238.933334c-27.306667 0-51.2-23.893333-51.2-51.2s23.893333-51.2 51.2-51.2z" fill="#268af0" p-id="844"></path><path d="M733.866667 375.466667V136.533333c0-27.306667 23.893333-51.2 51.2-51.2s51.2 23.893333 51.2 51.2v238.933334c0 27.306667-23.893333 51.2-51.2 51.2s-51.2-23.893333-51.2-51.2z" fill="#268af0" p-id="845"></path></svg>