<?xml version="1.0" standalone="no"?><!DOCTYPE svg PUBLIC "-//W3C//DTD SVG 1.1//EN" "http://www.w3.org/Graphics/SVG/1.1/DTD/svg11.dtd"><svg t="1583730354792" class="icon" viewBox="0 0 1024 1024" version="1.1" xmlns="http://www.w3.org/2000/svg" p-id="842" xmlns:xlink="http://www.w3.org/1999/xlink" width="200" height="200"><defs><style type="text/css"></style></defs><path d="M881.098561 354.744611c0-0.467669-0.423665-0.892357-0.423665-0.892357 0.423665 1.316022 0.423665 3.058778 0.423665 4.799488l0 2.166421c-1.317045 23.492933-20.007419 41.334954-43.500352 41.334954L620.09338 402.153118c-23.916597 0-43.500352-19.159066-43.500352-43.501375 0-23.917621 19.583754-43.501375 43.500352-43.501375l124.852191 0c-54.801151-52.63473-128.761369-84.835305-210.536872-84.835305-168.353566 0-304.506556 136.195971-304.506556 304.506556 0 167.928878 136.15299 304.506556 304.506556 304.506556 92.18497 0 174.428142-40.867285 229.655005-105.268436 7.857243-12.149153 21.324464-20.433131 37.000064-20.433131 24.342309 0 43.500352 19.583754 43.500352 43.501375 0 11.299776-4.3748 21.281484-11.34071 29.142821l0.467669 0.423665c-71.751839 85.280461-179.229677 139.657947-299.282379 139.657947-216.229741 0-391.508283-175.299009-391.508283-391.529773 0-216.187784 175.277518-391.508283 391.508283-391.508283 99.576591 0 190.530476 37.425776 259.688136 99.192837l0-101.359258c0-23.917621 19.585801-43.501375 43.502398-43.501375 24.342309 0 43.500352 19.583754 43.500352 43.501375L881.099584 354.744611z" p-id="843" fill="#8a8a8a"></path></svg>