<?xml version="1.0" standalone="no"?><!DOCTYPE svg PUBLIC "-//W3C//DTD SVG 1.1//EN" "http://www.w3.org/Graphics/SVG/1.1/DTD/svg11.dtd"><svg t="1582196627793" class="icon" viewBox="0 0 1024 1024" version="1.1" xmlns="http://www.w3.org/2000/svg" p-id="1685" xmlns:xlink="http://www.w3.org/1999/xlink" width="200" height="200"><defs><style type="text/css"></style></defs><path d="M876.544 655.36c-12.288 0-20.48 8.192-20.48 20.48l0 126.976c0 8.192-4.096 12.288-12.288 12.288L135.168 815.104c-8.192 0-12.288-4.096-12.288-12.288L122.88 221.184c0-8.192 4.096-12.288 12.288-12.288l708.608 0c8.192 0 12.288 4.096 12.288 12.288l0 122.88c0 12.288 8.192 20.48 20.48 20.48s20.48-8.192 20.48-20.48l0-122.88c0-28.672-24.576-53.248-53.248-53.248L135.168 167.936C106.496 167.936 81.92 192.512 81.92 221.184l0 577.536c0 28.672 24.576 53.248 53.248 53.248l708.608 0c28.672 0 53.248-24.576 53.248-53.248l0-126.976C897.024 663.552 888.832 655.36 876.544 655.36z" p-id="1686" fill="#ffffff"></path><path d="M688.128 512m-32.768 0a0.8 0.8 0 1 0 65.536 0 0.8 0.8 0 1 0-65.536 0Z" p-id="1687" fill="#ffffff"></path><path d="M942.08 413.696c0-12.288-8.192-20.48-20.48-20.48l-356.352 0c-12.288 0-20.48 8.192-20.48 20.48l0 188.416c0 12.288 8.192 20.48 20.48 20.48l356.352 0c4.096 0 12.288-4.096 16.384-4.096s4.096-8.192 4.096-16.384L942.08 413.696zM585.728 581.632l0-147.456L901.12 434.176l0 147.456L585.728 581.632z" p-id="1688" fill="#ffffff"></path></svg>